<?xml version="1.0" standalone="no"?>
<!DOCTYPE svg PUBLIC "-//W3C//DTD SVG 20010904//EN"
 "http://www.w3.org/TR/2001/REC-SVG-20010904/DTD/svg10.dtd">
<svg version="1.0" xmlns="http://www.w3.org/2000/svg"
 width="512.000000pt" height="512.000000pt" viewBox="0 0 512.000000 512.000000"
 preserveAspectRatio="xMidYMid meet">

<g transform="translate(0.000000,512.000000) scale(0.100000,-0.100000)"
fill="#eb3d3d" stroke="none">
<path d="M862 4824 c4 -256 8 -315 27 -407 58 -288 181 -539 368 -753 93 -106
166 -164 268 -214 92 -45 171 -67 272 -76 128 -12 312 28 421 92 l44 26 24
-28 c59 -70 171 -249 225 -359 97 -198 169 -447 185 -638 l7 -73 -89 -18
c-268 -51 -491 -167 -690 -359 l-102 -97 -113 55 c-261 126 -440 127 -694 1
-60 -30 -153 -82 -205 -115 l-95 -60 -357 -1 -358 0 0 -748 0 -749 318 -6
c585 -11 858 -45 1452 -177 450 -101 683 -128 1000 -117 389 14 681 87 1015
253 218 108 414 234 1207 777 l128 88 -49 72 c-107 159 -191 237 -326 302
-188 91 -353 99 -590 30 -17 -5 -24 3 -43 54 -54 139 -187 327 -319 451 -190
177 -433 300 -686 347 l-90 16 6 72 c15 174 87 428 172 612 65 139 167 300
261 411 1 2 22 -8 47 -22 24 -15 76 -37 116 -51 294 -100 592 -22 811 211 181
194 315 438 381 696 37 145 49 278 49 546 l0 252 -247 0 c-331 0 -489 -22
-695 -96 -287 -104 -592 -334 -701 -530 -64 -115 -89 -203 -95 -335 -6 -146
13 -239 74 -366 l44 -91 -84 -112 c-95 -127 -198 -302 -253 -431 -34 -81 -53
-109 -53 -77 0 7 -31 75 -69 152 -75 153 -162 292 -248 399 l-54 67 45 89 c62
124 80 212 74 364 -5 142 -32 237 -100 351 -120 204 -434 432 -732 531 -200
67 -266 76 -605 82 l-303 5 4 -298z m668 -33 c225 -51 415 -149 597 -308 75
-66 124 -137 153 -224 18 -53 21 -80 18 -159 -3 -59 -11 -110 -22 -135 l-17
-39 -257 257 -257 257 -105 -105 -105 -105 255 -255 c273 -273 266 -263 190
-285 -110 -32 -249 -16 -345 39 -64 37 -175 150 -243 248 -146 211 -217 429
-229 702 l-6 144 144 -6 c83 -4 180 -15 229 -26z m3030 -68 c0 -335 -134 -669
-361 -904 -124 -128 -292 -175 -459 -129 -76 21 -83 12 190 285 l255 255 -105
105 -105 105 -257 -257 -257 -257 -18 39 c-13 30 -17 68 -18 155 0 112 1 117
37 192 28 59 54 94 110 148 232 226 553 356 886 359 l102 1 0 -97z m-1438
-2657 c114 -29 239 -85 340 -153 156 -104 309 -293 379 -464 l32 -81 -22 -17
c-25 -19 -162 -89 -246 -127 l-54 -23 -32 57 c-76 137 -198 252 -334 317 -136
65 -153 67 -565 74 l-375 6 -55 27 c-30 15 -68 38 -84 51 l-28 23 63 59 c157
145 384 252 589 279 90 11 296 -3 392 -28z m-1647 -316 c87 -30 203 -95 400
-224 264 -173 247 -168 715 -176 360 -6 377 -7 429 -28 62 -26 101 -51 149
-96 43 -39 95 -113 84 -120 -4 -2 -59 -15 -122 -28 -101 -20 -143 -23 -340
-22 -166 0 -251 5 -325 17 -115 20 -303 67 -389 97 -33 11 -63 17 -67 13 -8
-10 -89 -253 -89 -269 0 -21 290 -101 490 -134 157 -27 453 -37 600 -21 160
17 336 56 498 110 232 76 401 159 647 315 115 73 171 89 289 84 73 -3 104 -10
153 -32 35 -16 67 -34 73 -41 15 -18 -670 -481 -916 -618 -245 -137 -464 -214
-724 -254 -87 -13 -176 -17 -360 -17 -315 0 -409 12 -845 109 -546 122 -833
160 -1353 181 l-172 6 0 449 0 449 251 0 252 0 131 84 c281 179 398 215 541
166z"/>
</g>
</svg>
